<?xml version="1.0" encoding="UTF-8" standalone="no"?>
<!DOCTYPE svg PUBLIC "-//W3C//DTD SVG 1.1//EN" "http://www.w3.org/Graphics/SVG/1.1/DTD/svg11.dtd">
<svg width="100%" height="100%" viewBox="0 0 1024 1024" version="1.1" xmlns="http://www.w3.org/2000/svg" xmlns:xlink="http://www.w3.org/1999/xlink" xml:space="preserve" xmlns:serif="http://www.serif.com/" style="fill-rule:evenodd;clip-rule:evenodd;stroke-linejoin:round;stroke-miterlimit:2;">
    <g fill="currentColor" transform="matrix(1,0,0,1,0,-36)">
        <path fill="currentColor" d="M417.615,76.875C375.223,86.299 333.289,99.42 293.973,119.209C294.872,153.925 297.116,187.189 301.666,220.977C286.398,230.759 270.351,239.154 256.09,250.605C241.6,261.753 226.8,272.418 213.68,285.455C187.468,268.118 159.725,251.825 131.145,237.443C100.337,270.599 71.531,306.383 48,346.428C66.493,375.457 86.329,404.633 104.699,427.387L104.699,673.152C105.149,673.157 105.598,673.173 106.043,673.215L256.713,687.742C264.605,688.504 270.79,694.857 271.34,702.766L275.986,769.275L407.416,778.654L416.471,717.268C417.645,709.309 424.471,703.41 432.521,703.41L591.482,703.41C599.529,703.41 606.355,709.309 607.529,717.268L616.584,778.654L748.018,769.275L752.66,702.766C753.214,694.857 759.395,688.508 767.287,687.742L917.898,673.215C918.344,673.173 918.789,673.157 919.238,673.152L919.238,653.541L919.301,653.521L919.301,427.387C940.517,400.677 960.608,371.215 976,346.428C952.477,306.383 923.655,270.599 892.848,237.443C864.275,251.825 836.523,268.118 810.311,285.455C797.194,272.418 782.421,261.753 767.91,250.605C753.653,239.154 737.587,230.759 722.348,220.977C726.885,187.189 729.128,153.925 730.031,119.209C690.711,99.42 648.782,86.299 606.369,76.875C589.436,105.335 573.95,136.154 560.463,166.283C544.47,163.611 528.403,162.621 512.314,162.43L512.314,162.404C512.202,162.404 512.098,162.43 512.002,162.43C511.902,162.43 511.797,162.404 511.697,162.404L511.697,162.43C495.58,162.621 479.526,163.611 463.529,166.283C450.051,136.154 434.574,105.335 417.615,76.875ZM298.416,436.398C348.567,436.398 389.215,477.016 389.215,527.15C389.215,577.318 348.567,617.959 298.416,617.959C248.29,617.959 207.629,577.318 207.629,527.15C207.629,477.016 248.29,436.398 298.416,436.398ZM725.594,436.398C775.716,436.398 816.373,477.016 816.373,527.15C816.373,577.318 775.716,617.959 725.594,617.959C675.434,617.959 634.787,577.318 634.787,527.15C634.787,477.016 675.434,436.398 725.594,436.398ZM511.994,489.508C528.137,489.508 541.248,501.416 541.248,516.068L541.248,599.658C541.248,614.323 528.137,626.221 511.994,626.221C495.852,626.221 482.768,614.323 482.768,599.658L482.768,516.068C482.768,501.416 495.852,489.508 511.994,489.508Z" style="fill-rule:nonzero;"/>
    </g>
    <g fill="currentColor" transform="matrix(4.16261,0,0,-4.16261,784.071,682.723)">
        <path fill="currentColor" d="M0,0L-1.121,-16.063C-1.256,-17.999 -2.796,-19.54 -4.732,-19.679L-43.287,-22.43C-43.381,-22.437 -43.475,-22.44 -43.568,-22.44C-45.484,-22.44 -47.137,-21.034 -47.42,-19.11L-49.631,-4.116L-81.09,-4.116L-83.301,-19.11C-83.598,-21.128 -85.402,-22.579 -87.434,-22.43L-125.989,-19.679C-127.925,-19.54 -129.465,-17.999 -129.6,-16.063L-130.721,0L-163.268,3.138C-163.253,-0.36 -163.208,-4.192 -163.208,-4.955C-163.208,-39.329 -119.603,-55.851 -65.427,-56.041L-65.294,-56.041C-11.118,-55.851 32.472,-39.329 32.472,-4.955C32.472,-4.178 32.519,-0.362 32.535,3.138L0,0Z" style="fill-rule:nonzero;"/>
    </g>
    <g fill="currentColor" transform="matrix(4.16261,0,0,-4.16261,367.367,496.537)">
        <path fill="currentColor" d="M0,0C0,-7.994 -6.479,-14.473 -14.479,-14.473C-22.475,-14.473 -28.958,-7.994 -28.958,0C-28.958,7.994 -22.475,14.479 -14.479,14.479C-6.479,14.479 0,7.994 0,0" style="fill-rule:nonzero;"/>
    </g>
    <g fill="currentColor" transform="matrix(4.16261,0,0,-4.16261,656.641,496.537)">
        <path fill="currentColor" d="M0,0C0,-7.994 6.477,-14.473 14.471,-14.473C22.473,-14.473 28.95,-7.994 28.95,0C28.95,7.994 22.473,14.479 14.471,14.479C6.477,14.479 0,7.994 0,0" style="fill-rule:nonzero;"/>
    </g>
</svg>
