<svg height="512" viewBox="0 0 152 152" width="512" xmlns="http://www.w3.org/2000/svg"><g id="Layer_2" fill="currentColor" data-name="Layer 2"><g fill="currentColor" id="Color"><path fill="currentColor" id="_91.Meetup" d="m76 0a76 76 0 1 0 76 76 76 76 0 0 0 -76-76zm37.64 108.32c-3.52 2.65-14.67.58-16.5-.64-5.9-3.29-9.45-9.38-8.09-16.21 2.72-8.18 12.3-25.28 12.3-27.89.32-2.27-.65-3.56-2.27-3.56-1 0-2.26 1-3.56 2.59-3.73 7.48 1.06-2.44-11.65 23-2.59 5.19-3.88 8.11-4.2 8.43-3 7.09-13.07 6.34-12-1.3 0-1.08 9.07-22.7 9.07-24.64.84-5.91-5-6.25-6.47-3.24-9.62 23.31-13.07 37.67-17.48 39.88a11.67 11.67 0 0 1 -14.56-2.92c-4.08-5.26-1.76-10.38.32-17.18 8.93-29.08 9.59-35.29 17.8-38.58 8.65-3.42 13.65 3.81 17.5 3.58 3-.18 7.06-7.18 12.62-7.25s9.45 4.38 11.32 4.61 2.29-1.55 6.15-1.55c6.47.32 9.71 3.24 10.68 9.4 1.21 9.75-19.7 40.68-10.36 44.42 4.25 1.7 5.83.32 9.06 1.94 2.97.57 4 5.89.32 7.11z" data-name="91.Meetup"/></g></g></svg>